<?xml version="1.0" encoding="utf-8"?>
<!-- Generator: Adobe Illustrator 16.0.0, SVG Export Plug-In . SVG Version: 6.00 Build 0)  -->
<!DOCTYPE svg PUBLIC "-//W3C//DTD SVG 1.1//EN" "http://www.w3.org/Graphics/SVG/1.1/DTD/svg11.dtd">
<svg version="1.1" id="圖層_1" xmlns="http://www.w3.org/2000/svg" xmlns:xlink="http://www.w3.org/1999/xlink" x="0px" y="0px"
	 width="204.869px" height="92px" viewBox="0 0 204.869 92" enable-background="new 0 0 204.869 92" xml:space="preserve">
<path fill="#717071" d="M45.108,30.935v-0.002V30.935z"/>
<g>
	<defs>
		<rect id="SVGID_1_" x="17.619" y="8.267" width="123.67" height="43.536"/>
	</defs>
	<clipPath id="SVGID_2_">
		<use xlink:href="#SVGID_1_"  overflow="visible"/>
	</clipPath>
	<path clip-path="url(#SVGID_2_)" fill="#717071" d="M53.906,8.478c-0.304,0.035-0.608,0.071-0.91,0.111
		c-1.67,0.219-3.318,0.519-4.956,0.914c-3.293,0.796-6.373,1.915-9.347,3.56l0.003-0.003c-0.402,0.228-1.982,1.007-3.972,2.256
		c0,0-3.083,1.959-4.067,2.855c-0.487,0.388-0.13,1.167,0.48,1.054c2.032-0.377,2.906-0.348,3.525-0.282
		c0.809,0.085,1.186,0.234,1.438,0.447c0.251,0.213,0.379,0.492,0.428,1.116c0.048,0.623,0.019,1.591-0.282,3.529l-0.817,4.89
		c-0.067,0.465,0.401,0.821,0.831,0.632l3.924-1.726c0.302-0.134,0.438-0.487,0.305-0.789l-1.949-4.403
		c-1.677-3.814-0.147-6.436,3.19-8.417c1.176-0.699,2.378-1.278,3.691-1.687c0.313-0.097,0.623-0.192,0.935-0.292
		c1.607-0.514,3.157-1.114,4.645-1.925c0.878-0.478,1.741-0.982,2.6-1.491c0.198-0.117,0.396-0.234,0.596-0.351
		C54.366,8.381,54.004,8.468,53.906,8.478"/>
	<path clip-path="url(#SVGID_2_)" fill="#717071" d="M60.86,14.154c-0.215-1.45-0.787-2.556-1.764-3.631l-0.788,0.785l0.234,0.728
		l-0.711-0.217l0.233,0.729l-0.696-0.234l0.233,0.729l-0.667-0.206l0.186,0.606l0.303,0.579l-0.756,0.332l0.464,0.823l-0.851,0.176
		l0.57,0.966l-1.061,0.225l0.72,1.15l-1.392,0.309l0.721,1.399l-1.682-0.004l0.643,1.688l-1.832-0.107l0.929,1.971L51.58,22.36
		l0.833,2.211l-1.942-1.088l0.397,2.352l-1.936-1.145l0.017,2.221l-1.666-1.251l-0.19,1.898l-2.111-0.795l-0.709,0.703l-1.372-0.531
		l-0.957,0.949l3.182,1.468c5.945,2.768,9.543-2.485,10.521-4.828c0,0,1.562-4.457,2.349-5.946
		C58.909,16.851,59.849,15.457,60.86,14.154"/>
	<path clip-path="url(#SVGID_2_)" fill="#717071" d="M54.375,8.801c-3.893,2.916-6.739,3.612-9.702,4.717
		c0,0-1.005,0.383-1.11,0.435c-3.417,1.768-6.466,4.137-3.282,10.237l1.21,3.202l0.935-0.93l-0.538-1.378l0.765-0.76l-0.798-2.104
		l1.905-0.189l-1.254-1.661l2.229,0.019l-1.148-1.93l2.361,0.397l-1.092-1.936l2.218,0.831l-0.59-2.307l1.977,0.927l-0.106-1.827
		l1.693,0.643l-0.002-1.676l1.403,0.719l0.31-1.388l1.155,0.719l0.227-1.058l0.969,0.569l0.177-0.848l0.825,0.464l0.334-0.754
		l0.58,0.302l0.608,0.185l-0.207-0.665l0.731,0.233l-0.232-0.695l0.73,0.234l-0.217-0.709l0.731,0.233l0.735-0.732
		c-1.106-1.129-2.262-1.786-3.836-2.053L54.375,8.801z"/>
	<path clip-path="url(#SVGID_2_)" fill="#717071" d="M32.415,35.399c0.429-0.333,1.045,0.036,0.953,0.572l-0.156,0.844
		c-0.109,0.475-0.239,0.705-3.14,2.901l-7.642,5.815c-0.712,0.541-1.69-0.18-1.386-1.021l0.534-1.597
		c0.238-0.811,0.507-1.424,1.344-2.058c0.837-0.632,2.24-1.282,3.554-1.95c1.313-0.668,2.539-1.354,3.565-1.959
		C31,36.383,31.785,35.888,32.415,35.399"/>
	<path clip-path="url(#SVGID_2_)" fill="#717071" d="M46.494,31.379c0.254,0.943,0.51,1.887,0.764,2.832
		c0.123,0.451,0.212,0.907,0.375,1.348c0.076,0.203,0.153,0.404,0.208,0.613c0.123,0.449,0.168,0.914,0.387,1.344
		c0.052,0.102,0.118,0.189,0.199,0.267c0.165,0.16,0.328,0.25,0.562,0.267c0.503,0.035,2.504-1.964,2.75-2.215
		c0.88-0.897,1.681-1.848,2.428-2.861c3.016-4.102,4.739-8.451,5.881-13.349c0.236-1.014,0.438-2.03,0.608-3.057
		c0.043-0.26,0.084-0.519,0.123-0.78c0.021-0.129,0.041-0.259,0.058-0.389c0.015-0.102,0.135-0.48,0.026-0.307
		c-0.468,0.756-0.949,1.503-1.412,2.262c-0.747,1.226-1.439,2.467-1.975,3.807c-0.375,0.946-0.703,1.908-1.035,2.868
		c-0.106,0.311-0.208,0.621-0.333,0.924c-0.762,1.864-2.218,3.773-3.913,4.904c-1.168,0.779-2.276,1.189-3.714,1.111
		c-0.75-0.042-1.423-0.225-2.101-0.536c-0.046-0.021-0.168-0.13-0.144-0.035c0.005,0.017,0.009,0.034,0.014,0.052
		c0.008,0.034,0.018,0.068,0.027,0.104C46.349,30.828,46.421,31.104,46.494,31.379"/>
	<path clip-path="url(#SVGID_2_)" fill="#717071" d="M42.098,49.449h1.885c-0.008,0.404-0.047,0.564-0.079,0.629
		c-0.042,0.088-0.146,0.145-0.317,0.176c-0.208,0.033-0.532,0.049-0.967,0.049c-0.809,0-1.312-0.018-1.54-0.057
		c-0.106-0.014-0.188-0.045-0.239-0.086c-0.051-0.043-0.088-0.107-0.111-0.193c-0.043-0.162-0.065-0.518-0.065-1.057
		c0-0.361,0.013-0.626,0.037-0.787c0.023-0.15,0.064-0.254,0.122-0.309c0.042-0.043,0.147-0.098,0.407-0.129
		c0.218-0.025,0.583-0.037,1.083-0.037c0.372,0,0.695,0.008,0.959,0.025c0.178,0.015,0.317,0.031,0.402,0.053
		c0.075,0.018,0.134,0.048,0.172,0.087c0.041,0.042,0.093,0.163,0.099,0.501l0.001,0.06h0.619l-0.001-0.062
		c-0.003-0.221-0.024-0.396-0.062-0.521c-0.036-0.126-0.102-0.24-0.197-0.339c-0.154-0.158-0.355-0.254-0.598-0.287
		c-0.119-0.018-0.335-0.031-0.64-0.044c-0.31-0.015-0.592-0.021-0.841-0.021c-0.772,0-1.277,0.041-1.541,0.127
		c-0.279,0.088-0.458,0.277-0.531,0.564c-0.075,0.285-0.111,0.674-0.111,1.187c0,0.741,0.068,1.208,0.208,1.427
		c0.127,0.201,0.334,0.328,0.617,0.373c0.309,0.047,0.835,0.07,1.563,0.07c0.793,0,1.291-0.035,1.521-0.109
		c0.172-0.059,0.305-0.139,0.393-0.24c0.085-0.1,0.147-0.244,0.187-0.441c0.035-0.172,0.053-0.541,0.057-1.096v-0.061h-2.493V49.449
		z"/>
	<path clip-path="url(#SVGID_2_)" fill="#717071" d="M47.793,48.354c-0.113-0.069-0.269-0.116-0.462-0.141
		c-0.189-0.023-0.485-0.036-0.881-0.036c-0.456,0.003-0.771,0.036-0.965,0.103c-0.199,0.066-0.357,0.202-0.472,0.402
		c-0.109,0.191-0.165,0.471-0.165,0.832c0,0.32,0.038,0.576,0.113,0.762c0.077,0.188,0.208,0.332,0.386,0.43
		c0.123,0.064,0.277,0.109,0.461,0.133c0.182,0.025,0.448,0.037,0.814,0.037c0.378,0,0.654-0.018,0.821-0.051
		c0.178-0.035,0.318-0.092,0.427-0.174c0.112-0.078,0.201-0.189,0.267-0.33c0.089-0.188,0.133-0.445,0.133-0.793
		c0-0.309-0.037-0.557-0.109-0.738C48.087,48.602,47.962,48.453,47.793,48.354 M47.727,49.514c0,0.215-0.018,0.385-0.055,0.506
		c-0.032,0.107-0.088,0.191-0.166,0.246c-0.071,0.053-0.17,0.088-0.294,0.109c-0.137,0.02-0.346,0.029-0.62,0.029
		c-0.426,0-0.716-0.027-0.861-0.082c-0.122-0.049-0.207-0.127-0.257-0.238c-0.053-0.121-0.08-0.305-0.08-0.545
		c0-0.217,0.021-0.389,0.061-0.514c0.038-0.115,0.098-0.2,0.177-0.252c0.072-0.047,0.171-0.08,0.295-0.098
		c0.133-0.018,0.33-0.027,0.585-0.027c0.408,0,0.688,0.021,0.833,0.065c0.14,0.042,0.237,0.122,0.297,0.243
		C47.699,49.072,47.727,49.26,47.727,49.514"/>
	<path clip-path="url(#SVGID_2_)" fill="#717071" d="M91.067,47.102v1.334c-0.082-0.086-0.184-0.148-0.303-0.186
		c-0.156-0.049-0.405-0.072-0.76-0.072c-0.553,0-0.922,0.029-1.128,0.092c-0.213,0.066-0.382,0.207-0.501,0.42
		c-0.107,0.188-0.16,0.473-0.16,0.846c0,0.309,0.035,0.557,0.106,0.736c0.075,0.186,0.199,0.328,0.371,0.426
		c0.115,0.068,0.261,0.113,0.443,0.139c0.176,0.025,0.435,0.039,0.768,0.039c0.415,0,0.693-0.023,0.852-0.068
		c0.12-0.035,0.225-0.098,0.313-0.189v0.232h0.521v-3.748H91.067z M89.308,48.678c0.144-0.02,0.363-0.029,0.653-0.029
		c0.429,0.002,0.712,0.039,0.84,0.108c0.098,0.055,0.163,0.137,0.201,0.249c0.043,0.121,0.064,0.305,0.064,0.547
		c0,0.203-0.02,0.365-0.058,0.479c-0.037,0.105-0.097,0.188-0.182,0.246c-0.066,0.047-0.172,0.078-0.315,0.098
		c-0.153,0.02-0.382,0.029-0.68,0.029c-0.568,0-0.794-0.086-0.883-0.158c-0.126-0.104-0.19-0.344-0.19-0.711
		c0-0.215,0.02-0.387,0.058-0.509c0.039-0.114,0.097-0.196,0.18-0.251C89.066,48.729,89.171,48.697,89.308,48.678"/>
	<rect x="87.389" y="47.102" clip-path="url(#SVGID_2_)" fill="#717071" width="0.521" height="3.748"/>
	<path clip-path="url(#SVGID_2_)" fill="#717071" d="M86.649,48.22c-0.124-0.028-0.314-0.042-0.564-0.042
		c-0.243,0-0.434,0.008-0.563,0.021c-0.136,0.018-0.24,0.047-0.318,0.088c-0.088,0.045-0.163,0.102-0.222,0.169v-0.255h-0.52v2.648
		h0.52v-1.215c0-0.529,0.098-0.736,0.18-0.814c0.121-0.115,0.413-0.172,0.868-0.172c0.296,0,0.491,0.041,0.577,0.123
		c0.039,0.04,0.066,0.09,0.08,0.154c0.018,0.066,0.028,0.168,0.028,0.305v0.242h0.544v-0.324c0-0.348-0.092-0.605-0.274-0.766
		C86.89,48.305,86.776,48.25,86.649,48.22"/>
	<path clip-path="url(#SVGID_2_)" fill="#717071" d="M83.703,48.354c-0.114-0.068-0.27-0.116-0.464-0.141
		c-0.188-0.023-0.485-0.036-0.88-0.036c-0.456,0.003-0.771,0.036-0.965,0.103c-0.2,0.066-0.359,0.202-0.473,0.402
		c-0.109,0.191-0.164,0.473-0.164,0.832c0,0.324,0.038,0.578,0.113,0.762c0.078,0.188,0.208,0.332,0.387,0.43
		c0.121,0.064,0.277,0.109,0.462,0.133c0.182,0.025,0.447,0.037,0.812,0.037c0.379,0,0.655-0.018,0.822-0.051
		c0.175-0.035,0.32-0.094,0.428-0.174c0.11-0.078,0.199-0.189,0.266-0.33c0.09-0.186,0.134-0.445,0.134-0.793
		c0-0.309-0.037-0.557-0.11-0.738C83.996,48.602,83.872,48.455,83.703,48.354 M83.635,49.514c0,0.223-0.018,0.389-0.055,0.506
		c-0.033,0.107-0.088,0.191-0.163,0.244c-0.077,0.055-0.174,0.09-0.297,0.111c-0.136,0.02-0.344,0.029-0.619,0.029
		c-0.427,0-0.718-0.027-0.862-0.082c-0.123-0.047-0.208-0.125-0.257-0.238c-0.052-0.117-0.079-0.301-0.079-0.545
		c0-0.217,0.021-0.389,0.06-0.512c0.041-0.12,0.099-0.203,0.178-0.254c0.075-0.047,0.172-0.08,0.297-0.098
		c0.131-0.018,0.327-0.027,0.584-0.027c0.408,0,0.688,0.021,0.834,0.065c0.139,0.04,0.236,0.122,0.296,0.243
		C83.607,49.072,83.635,49.262,83.635,49.514"/>
	<polygon clip-path="url(#SVGID_2_)" fill="#717071" points="80.124,47.102 78.62,50.303 78.554,50.303 77.202,47.139 
		77.186,47.102 76.508,47.102 75.087,50.303 75.013,50.303 73.551,47.102 72.896,47.102 74.61,50.85 75.516,50.85 76.851,47.844 
		78.127,50.85 79.02,50.85 80.783,47.102 	"/>
	<polygon clip-path="url(#SVGID_2_)" fill="#717071" points="70.324,50.313 69.573,48.201 68.86,48.201 68.12,50.303 67.164,48.201 
		66.589,48.201 67.808,50.85 68.476,50.85 69.218,48.764 69.968,50.85 70.642,50.85 71.863,48.201 71.271,48.201 	"/>
	<path clip-path="url(#SVGID_2_)" fill="#717071" d="M66.383,48.479c-0.114-0.119-0.273-0.201-0.474-0.241
		c-0.193-0.04-0.51-0.061-0.938-0.061c-0.562,0-0.936,0.05-1.146,0.151c-0.221,0.107-0.334,0.311-0.334,0.6
		c0,0.031,0.006,0.07,0.02,0.125l0.011,0.045h0.52v-0.059c0-0.018-0.001-0.031-0.005-0.045c0.003-0.19,0.089-0.247,0.154-0.273
		c0.119-0.049,0.392-0.072,0.813-0.072c0.323,0,0.557,0.016,0.694,0.045c0.13,0.027,0.228,0.081,0.29,0.158
		c0.07,0.086,0.106,0.236,0.106,0.445v0.146c-0.088-0.084-0.2-0.141-0.333-0.166c-0.159-0.033-0.495-0.049-1.025-0.049
		c-0.507,0-0.823,0.029-0.966,0.092c-0.135,0.055-0.234,0.143-0.294,0.262c-0.056,0.109-0.083,0.27-0.083,0.473
		c0,0.162,0.018,0.293,0.054,0.393c0.039,0.098,0.108,0.182,0.206,0.252c0.099,0.074,0.235,0.121,0.419,0.145
		c0.176,0.021,0.488,0.031,0.927,0.031c0.396,0,0.657-0.02,0.802-0.061c0.11-0.031,0.21-0.09,0.299-0.176l-0.006,0.211h0.522v-1.379
		c0-0.313-0.014-0.523-0.042-0.648C66.543,48.689,66.48,48.574,66.383,48.479 M66.069,50.049c0,0.143-0.055,0.232-0.167,0.277
		c-0.09,0.035-0.306,0.078-0.819,0.078c-0.707,0-0.93-0.037-0.994-0.064c-0.103-0.049-0.152-0.139-0.152-0.279
		c0-0.143,0.042-0.238,0.126-0.289c0.032-0.018,0.102-0.043,0.254-0.057c0.121-0.01,0.338-0.016,0.685-0.016
		c0.437,0,0.732,0.027,0.876,0.08C66.009,49.828,66.069,49.914,66.069,50.049"/>
	<polygon clip-path="url(#SVGID_2_)" fill="#717071" points="60.149,50.125 58.213,47.102 57.161,47.102 57.161,50.85 57.757,50.85 
		57.757,47.672 57.876,47.672 59.905,50.822 59.922,50.85 60.382,50.85 62.407,47.672 62.515,47.672 62.515,50.85 63.111,50.85 
		63.111,47.102 62.053,47.102 	"/>
	<path clip-path="url(#SVGID_2_)" fill="#717071" d="M54.911,48.371c0,0.023,0,0.047,0,0.07c-0.052-0.055-0.113-0.104-0.182-0.143
		c-0.089-0.048-0.199-0.079-0.334-0.098c-0.128-0.016-0.331-0.024-0.603-0.024c-0.332,0-0.589,0.011-0.767,0.031
		c-0.177,0.021-0.327,0.058-0.445,0.112c-0.364,0.172-0.549,0.555-0.549,1.137c0,0.27,0.032,0.484,0.099,0.656
		c0.068,0.176,0.177,0.318,0.322,0.426c0.106,0.078,0.259,0.133,0.457,0.166c0.194,0.029,0.464,0.047,0.8,0.047
		c0.411,0,0.698-0.023,0.854-0.064c0.125-0.033,0.238-0.096,0.337-0.189c-0.009,0.191-0.021,0.328-0.036,0.41
		c-0.017,0.09-0.05,0.168-0.099,0.234c-0.059,0.076-0.169,0.131-0.326,0.164c-0.167,0.033-0.44,0.049-0.813,0.049
		c-0.527,0-0.745-0.066-0.837-0.123c-0.052-0.031-0.088-0.068-0.112-0.111c-0.023-0.049-0.04-0.121-0.046-0.211l-0.005-0.055h-0.524
		v0.061c0,0.123,0.008,0.217,0.024,0.283c0.016,0.068,0.051,0.139,0.104,0.211c0.106,0.146,0.269,0.25,0.486,0.307
		c0.21,0.057,0.522,0.086,0.953,0.086c0.401,0,0.705-0.016,0.901-0.045c0.195-0.029,0.353-0.088,0.47-0.172
		c0.177-0.133,0.286-0.303,0.325-0.51c0.042-0.207,0.063-0.508,0.063-0.922v-1.953h-0.521L54.911,48.371z M54.818,48.966
		c0.043,0.104,0.065,0.259,0.065,0.458c0,0.213-0.019,0.379-0.058,0.49c-0.037,0.107-0.1,0.189-0.185,0.246
		c-0.087,0.055-0.316,0.121-0.916,0.121c-0.551,0-0.769-0.049-0.854-0.092c-0.199-0.096-0.295-0.332-0.295-0.721
		c0-0.379,0.087-0.617,0.26-0.705c0.148-0.076,0.466-0.115,0.942-0.115c0.413,0,0.69,0.033,0.826,0.099
		C54.707,48.797,54.776,48.869,54.818,48.966"/>
	<path clip-path="url(#SVGID_2_)" fill="#717071" d="M51.552,48.473c-0.104-0.113-0.25-0.191-0.437-0.234
		c-0.183-0.041-0.456-0.062-0.811-0.062c-0.415,0-0.716,0.03-0.895,0.087c-0.138,0.046-0.25,0.119-0.336,0.225v-0.287h-0.521v2.648
		h0.521v-1.229c0-0.232,0.009-0.395,0.027-0.482c0.017-0.084,0.051-0.159,0.103-0.223c0.079-0.094,0.198-0.162,0.354-0.202
		c0.162-0.044,0.396-0.065,0.697-0.065c0.266,0,0.468,0.016,0.602,0.045c0.125,0.032,0.217,0.081,0.275,0.146
		c0.049,0.061,0.081,0.132,0.097,0.222c0.019,0.093,0.028,0.251,0.028,0.472v1.316h0.52v-1.486c0-0.244-0.016-0.426-0.048-0.555
		C51.694,48.672,51.635,48.56,51.552,48.473"/>
	<path clip-path="url(#SVGID_2_)" fill="#717071" d="M40.422,45.654c4.898-1.808,9.669-5.999,14.395-10.328
		c-1.406,2.813-1.467,4.229-0.763,5.451c0.707,1.225,2.175,2.258,5.14,2.775c0.96,0.168,2.081,0.282,4.858,0.357h70.312
		c-0.236,0.583-0.473,1.164-0.713,1.745H40.422z"/>
	<path clip-path="url(#SVGID_2_)" fill="#4A6CB2" d="M105.057,42.541c0.253,0,0.424-0.092,0.508-0.274
		c4.155-9.331,6.232-14.008,6.232-14.037c0-0.126-0.102-0.189-0.299-0.189h-2.766c-0.127,0-0.24,0.039-0.339,0.121
		c-4.945,3.115-9.889,6.234-14.833,9.351c-1.925-3.12-3.846-6.243-5.772-9.367c-0.057-0.07-0.149-0.105-0.273-0.105h-3.11
		c-0.253,0-0.423,0.095-0.507,0.291c-4.153,9.319-6.23,13.993-6.23,14.022c0,0.125,0.096,0.188,0.29,0.188h2.877
		c0.251,0,0.419-0.098,0.5-0.295c0.843-1.896,1.684-3.792,2.526-5.685c1.583,1.956,3.17,3.917,4.76,5.874
		c0.068,0.07,0.408,0.105,1.015,0.105c0.497,0,0.808-0.036,0.935-0.105c3.046-1.942,6.096-3.887,9.144-5.829
		c-1.688,3.802-2.533,5.718-2.533,5.747c0,0.125,0.096,0.188,0.294,0.188H105.057z"/>
	<path clip-path="url(#SVGID_2_)" fill="#4A6CB2" d="M110.525,42.461c3.989-2.76,7.971-5.521,11.958-8.279
		c1.119,1.386,2.242,2.767,3.359,4.15c2.795-1.79,5.586-3.582,8.379-5.374c0.672-1.637,1.34-3.272,2.008-4.908h-2.527
		c-0.559,0-0.861,0.195-1.092,0.711c-0.777,1.756-1.557,3.512-2.342,5.269c-1.584-1.957-3.17-3.917-4.756-5.874
		c-0.068-0.07-0.406-0.106-1.018-0.106c-0.496,0-0.807,0.036-0.934,0.106c-2.982,1.902-5.963,3.801-8.945,5.704
		c0.85-1.937,1.701-3.874,2.553-5.81h-3.271c-0.25,0-0.42,0.091-0.506,0.274c-4.154,9.331-6.229,14.012-6.229,14.04
		c0,0.125,0.099,0.187,0.293,0.187h2.77c0.125,0,0.237-0.039,0.338-0.118"/>
	<path clip-path="url(#SVGID_2_)" fill="#4A6CB2" d="M75.554,42.541c0.255,0,0.425-0.092,0.507-0.274
		c2.69-6.039,4.035-9.073,4.035-9.1c0-0.13-0.098-0.191-0.295-0.191h-7.58c-0.255,0-0.425,0.091-0.508,0.274
		c-1.008,2.278-2.013,4.557-3.02,6.831h-2.364c-0.973,0-1.459-0.411-1.459-1.233c0-0.569,0.277-1.463,0.828-2.685
		c0.335-0.771,0.673-1.548,1.009-2.32c0.493-1.123,0.958-1.903,1.396-2.342c0.629-0.668,1.448-1.003,2.449-1.003h8.846
		c0.254,0,0.424-0.081,0.507-0.248c0.289-0.648,0.58-1.294,0.869-1.94c0.013-0.027,0.018-0.054,0.018-0.082
		c0-0.126-0.099-0.187-0.292-0.187H66.984c-2.099,0-4.076,0.734-5.935,2.198c-1.69,1.338-2.998,3.022-3.928,5.051
		c-0.55,1.198-0.824,2.328-0.824,3.384c0,1.252,0.395,2.225,1.183,2.916c0.746,0.634,1.76,0.951,3.04,0.951H75.554z"/>
	<path clip-path="url(#SVGID_2_)" fill="#4A6CB2" d="M140.762,28.049h-3.158l-2.361,5.771c-2.863,1.837-5.729,3.674-8.59,5.509
		c0.748,0.929,1.5,1.855,2.25,2.782c0.254,0.315,0.521,0.441,0.928,0.441h4.719c0.262,0.03,0.4-0.05,0.508-0.29
		c2.09-4.666,4.164-9.339,6.23-14.021C141.287,28.24,141.357,28.049,140.762,28.049 M131.697,40.448
		c-0.777-0.058-1.361-0.736-1.299-1.516c0.059-0.776,0.736-1.358,1.516-1.301c0.775,0.061,1.359,0.739,1.301,1.517
		C133.152,39.926,132.477,40.507,131.697,40.448"/>
	<polygon clip-path="url(#SVGID_2_)" fill="#717071" points="131.861,50.041 131.631,50.605 93.918,50.605 93.918,50.041 	"/>
	<polygon clip-path="url(#SVGID_2_)" fill="#717071" points="133.107,46.986 132.877,47.553 93.918,47.553 93.918,46.986 	"/>
	<polygon clip-path="url(#SVGID_2_)" fill="#717071" points="132.51,48.457 132.275,49.023 93.918,49.023 93.918,48.457 	"/>
	<path clip-path="url(#SVGID_2_)" fill="#717071" d="M34.151,31.795l0.889-4.623c0.37-2.09,0.521-3.45,0.659-4.592
		c0.137-1.142,0.261-2.064-0.042-2.532c-0.304-0.465-1.034-0.478-2.152-0.453c-1.117,0.025-2.624,0.084-3.861,0.366
		c-1.238,0.284-2.209,0.787-2.972,2.675c0,0-0.663,1.748-0.318,5.073c0.076,1.692-0.551,3.491-1.429,4.848
		c-0.878,1.357-2.005,2.27-3.024,3.135c-1.018,0.866-1.927,1.683-2.615,2.408c-0.686,0.724-1.15,1.356-1.399,1.928
		c-0.248,0.571-0.282,1.082-0.264,1.386c0.019,0.306,0.09,0.407,0.19,0.497c0.099,0.09,0.225,0.167,1.487-0.33
		c1.261-0.494,3.659-1.562,5.972-2.696c2.313-1.132,4.543-2.332,6.084-3.308C32.897,34.602,33.748,33.853,34.151,31.795
		 M30.594,22.071c0.719-0.787,1.941-0.84,2.727-0.122c0.789,0.72,0.842,1.941,0.122,2.729c-0.72,0.787-1.939,0.841-2.728,0.122
		C29.928,24.081,29.874,22.859,30.594,22.071 M30.439,29.975c0.445-0.566,1.265-0.665,1.832-0.219
		c0.567,0.445,0.666,1.266,0.219,1.831c-0.445,0.567-1.266,0.666-1.833,0.221C30.092,31.362,29.994,30.541,30.439,29.975"/>
	<path clip-path="url(#SVGID_2_)" fill="#717071" d="M46.05,32.238c0,0-0.236-0.809-0.324-0.995
		c-0.639-1.346-2.251-2.339-3.844-2.108l-2.217,0.32c-2.435,0.353-3.186,1.04-3.76,1.636c-0.577,0.596-0.979,1.101-1.307,2.005
		C34.27,34,34.018,35.3,34.109,36.374c0,0,0.232,0.859-0.689,1.569l-4.855,3.761c-0.595,0.461-0.784,0.928-0.676,1.673l-0.687,0.688
		c-0.396-0.156-0.662-0.101-0.963,0.202l-0.62,0.624c-0.351,0.352-0.35,0.918,0.001,1.268l3.436,3.424
		c0.351,0.35,0.919,0.346,1.269-0.004l0.62-0.623c0.311-0.311,0.362-0.582,0.189-0.986l0.681-0.684
		c0.306,0.056,0.753-0.059,0.753-0.059c4.977-1.479,9.49-3.58,13.826-6.435C47.982,39.533,48.156,38.767,46.05,32.238 M41.19,34.843
		c-0.802,0.983-2.248,1.13-3.233,0.33c-0.983-0.802-1.13-2.25-0.331-3.233c0.803-0.984,2.25-1.132,3.235-0.33
		C41.845,32.412,41.992,33.86,41.19,34.843"/>
</g>
<g>
	<path fill="#231815" d="M24.92,67.729c2.022,0.396,3.362,0.813,4.019,1.244c0.64,0.466,0.958,0.95,0.958,1.452
		c0,0.312-0.113,0.596-0.336,0.855c-0.251,0.26-0.489,0.39-0.714,0.39c-0.847,0-1.427-0.449-1.738-1.349
		c-0.415-0.978-1.202-1.79-2.359-2.438L24.92,67.729z M22.522,66.537h2.23v-4.044h-2.23V66.537z M20.966,67.366l2.009,0.896
		c0.251,0.112,0.376,0.232,0.376,0.363c0,0.13-0.173,0.213-0.519,0.248c-1.625,1.294-3.198,2.264-4.719,2.902l-0.104-0.206
		C18.979,70.521,19.964,69.121,20.966,67.366 M28.277,60.78l1.622,1.349l-0.324,0.364h-2.593v4.045H27.5l1.142-1.452l1.71,1.452
		L30.042,66.9H17.958l-0.155-0.362h2.594v-4.045h-1.764l-0.156-0.364h1.919v-2.695l2.228,0.168c0.277,0.035,0.417,0.116,0.417,0.246
		c0,0.122-0.172,0.264-0.519,0.429v1.853h2.23V59.38l2.359,0.196c0.294,0.033,0.442,0.124,0.442,0.271
		c0,0.122-0.191,0.264-0.571,0.429v1.853h0.208L28.277,60.78z"/>
	<path fill="#231815" d="M42.069,64.257c-0.034-0.028-0.073-0.058-0.116-0.092c-0.129-0.146-0.207-0.326-0.233-0.532
		c0-0.173-0.056-0.342-0.168-0.506c-0.018-0.043-0.038-0.085-0.063-0.129c-0.027,0.025-0.059,0.047-0.091,0.063l-0.311,0.155
		c0,0.373,0.007,0.718,0.025,1.039L42.069,64.257L42.069,64.257z M41.046,62.608c-0.009,0-0.014-0.005-0.014-0.013l0.065-0.079
		l-0.583,0.079L41.046,62.608z M44.092,59.848l1.504,1.296l-0.259,0.363H42.33v0.832l-0.803,0.102
		c0.7,0.034,1.162,0.145,1.387,0.326c0.302,0.198,0.453,0.452,0.453,0.764c0,0.224-0.076,0.431-0.232,0.622
		c-0.035,0.043-0.076,0.078-0.129,0.105h0.051l0.985-1.233l1.504,1.233l-0.247,0.361h-4.16c0.061,0.831,0.187,1.521,0.375,2.074
		c0.389-0.519,0.798-1.123,1.231-1.814l2.022,1.336c0.164,0.131,0.251,0.237,0.259,0.324c0,0.138-0.208,0.207-0.622,0.207
		c-0.649,0.605-1.236,1.133-1.765,1.582c0.399,0.329,0.918,0.649,1.557,0.958l0.985-1.801l0.259,0.093
		c-0.208,0.836-0.311,1.377-0.311,1.619c0.043,0.563,0.198,0.941,0.465,1.142c-0.034,0.303-0.151,0.6-0.349,0.893
		c-0.215,0.294-0.462,0.442-0.738,0.442c-0.484,0-1.08-0.168-1.79-0.506c-0.725-0.311-1.377-0.789-1.958-1.439
		c-0.129,0.077-0.259,0.152-0.388,0.222c-1.288,0.682-2.882,1.24-4.783,1.671l-0.104-0.193c1.797-0.855,3.28-1.846,4.447-2.97
		c-0.398-0.865-0.688-2.144-0.87-3.836h-2.645v2.124c0,0.909-0.228,1.804-0.687,2.687c-0.458,0.837-1.233,1.567-2.321,2.189
		l-0.104-0.193c0.371-0.709,0.631-1.483,0.778-2.322c0.138-0.786,0.208-1.571,0.208-2.359v-3.319l2.022,0.834h2.71
		c-0.053-0.539-0.092-1.104-0.116-1.699l1.191,0.026v-1.078H38.18v1.518l-2.177,0.246v-1.764H33.68l-0.167-0.363h2.488v-1.711
		l2.192,0.13c0.311,0.035,0.465,0.117,0.465,0.248c0,0.096-0.159,0.193-0.481,0.297v1.036h1.92v-1.711l2.19,0.144
		c0.303,0.042,0.455,0.133,0.455,0.271c0,0.121-0.138,0.242-0.415,0.363v0.933h0.726L44.092,59.848z"/>
	<polygon fill="#231815" points="59.038,59.587 60.697,60.988 60.373,61.351 55.964,61.351 55.964,70.376 58.298,70.376 
		59.44,68.922 61.151,70.376 60.84,70.737 48.861,70.737 48.705,70.376 53.632,70.376 53.632,61.351 49.173,61.351 49.017,60.988 
		57.883,60.988 	"/>
	<path fill="#231815" d="M71.21,64.877v0.998h1.764l0.829-0.998H71.21z M68.46,64.515h2.32l0.726-1.712h-4.305
		c0.666,0.13,1.117,0.255,1.35,0.375c0.215,0.14,0.324,0.294,0.324,0.469c0,0.267-0.095,0.514-0.284,0.739
		C68.547,64.436,68.504,64.479,68.46,64.515 M65.142,59.898c0.908,0,1.505,0.136,1.789,0.402c0.295,0.243,0.44,0.558,0.44,0.949
		c0,0.266-0.097,0.514-0.286,0.736c-0.208,0.2-0.44,0.298-0.698,0.298c-0.208,0-0.381-0.095-0.519-0.285
		c-0.113-0.182-0.184-0.402-0.209-0.66c0-0.199-0.051-0.403-0.156-0.608c-0.07-0.183-0.224-0.391-0.465-0.623L65.142,59.898z
		 M67.735,59.276l2.022,0.154c0.242,0.026,0.363,0.096,0.363,0.209c0,0.112-0.155,0.233-0.466,0.364v2.435h0.725v-3.161l2.114,0.181
		c0.252,0.025,0.375,0.108,0.375,0.247c0,0.104-0.173,0.221-0.518,0.351v2.385h0.169l0.92-2.735l2.036,0.714
		c0.199,0.053,0.298,0.136,0.298,0.259c0,0.146-0.191,0.233-0.569,0.259l-1.867,1.502h0.777l0.986-1.188l1.451,1.188l-0.258,0.364
		h-4.292l1.57,0.57c0.19,0.054,0.285,0.144,0.285,0.273c0,0.103-0.191,0.168-0.569,0.193l-1.544,0.675h1.698l0.933-1.142l1.4,1.142
		l-0.258,0.366h-1.598l1.232,1.007l-0.259,0.353H71.21v1.129h2.799l0.933-1.141l1.401,1.141l-0.249,0.362h-4.835
		c0.588,0.328,1.253,0.584,1.997,0.764c0.675,0.182,1.634,0.324,2.878,0.428v0.311c-0.526,0.304-0.891,1.017-1.089,2.141
		c-1.253-0.458-2.157-0.941-2.709-1.453c-0.485-0.423-0.859-0.898-1.127-1.426v2.932l-2.333,0.297v-2.491
		c-0.303,0.236-0.605,0.441-0.908,0.623c-1.027,0.579-2.283,1.045-3.759,1.4l-0.157-0.363c0.882-0.477,1.564-0.958,2.049-1.453
		c0.397-0.397,0.812-0.965,1.245-1.71H64.21l-0.157-0.362h4.823v-1.129H65.35l-0.155-0.363h3.682v-0.999h-4.148l-0.157-0.364h2.748
		c-0.129-0.111-0.208-0.327-0.232-0.646c-0.051-0.369-0.251-0.692-0.597-0.957l0.079-0.105H64.21l-0.157-0.364h3.683v-3.162H67.735z
		"/>
	<path fill="#231815" d="M85.547,65.499c0.447,0.934,1.145,1.677,2.086,2.23c0.251-0.621,0.484-1.366,0.7-2.23H85.547z
		 M85.209,59.431l1.749,0.78h1.102l0.675-0.831l1.438,0.855c0.147,0.104,0.22,0.198,0.22,0.286c0,0.146-0.136,0.285-0.415,0.414
		v1.57c0,0.164,0.053,0.245,0.157,0.245c0.208,0,0.355-0.081,0.44-0.245l0.337-1.09h0.313c0.016,0.648,0.081,1.037,0.194,1.168
		c0.095,0.103,0.272,0.192,0.531,0.271c-0.147,0.874-0.307,1.374-0.479,1.503c-0.156,0.139-0.358,0.208-0.607,0.208H89.85
		l1.22,0.855c0.137,0.104,0.206,0.216,0.206,0.338c0,0.164-0.078,0.265-0.232,0.298l-0.441,0.116
		c-0.406,0.951-0.809,1.739-1.206,2.359c0.716,0.26,1.551,0.492,2.5,0.7v0.26c-0.665,0.389-1.027,1.131-1.087,2.229
		c-1.21-0.499-2.175-1.015-2.892-1.541c-0.907,0.648-2.208,1.161-3.902,1.541l-0.155-0.258c1.357-0.648,2.346-1.409,2.968-2.282
		c-0.673-0.839-1.218-2.065-1.633-3.682h-0.453l-0.156-0.363h3.643l0.607-0.581c-0.231-0.035-0.421-0.14-0.569-0.313
		c-0.171-0.18-0.258-0.437-0.258-0.765v-2.903h-0.882v1.036c0,0.691-0.147,1.259-0.44,1.699c-0.416,0.554-1.064,1.075-1.946,1.568
		l-0.207-0.141c0.449-0.71,0.674-1.752,0.674-3.126v-2.18H85.209z M81.838,63.127h0.777v-2.554h-0.777V63.127z M81.826,66.121h0.79
		v-2.63h-0.777v2.115C81.838,65.785,81.834,65.959,81.826,66.121 M80.076,59.483l1.699,0.728h0.764l0.7-0.78l1.453,0.884
		c0.113,0.077,0.169,0.145,0.169,0.207c0,0.087-0.143,0.213-0.429,0.375v9.389c0.018,0.335-0.095,0.604-0.336,0.802
		c-0.293,0.242-0.889,0.367-1.788,0.376c-0.07-0.632-0.16-1.029-0.273-1.191c-0.155-0.235-0.358-0.403-0.609-0.507v-0.171h1.192
		v-3.112h-0.817c-0.061,0.806-0.208,1.566-0.441,2.283c-0.337,1.08-0.92,2.066-1.749,2.955l-0.157-0.154
		c0.207-0.667,0.368-1.447,0.48-2.347c0.086-0.848,0.135-2.053,0.142-3.619V59.483L80.076,59.483z"/>
	<path fill="#231815" d="M96.823,59.328l2.385,0.532c0.174,0.043,0.259,0.124,0.259,0.246c0,0.13-0.155,0.25-0.466,0.362
		c-0.543,1.149-1.068,2.066-1.57,2.749l0.506,0.078c0.156,0.036,0.233,0.077,0.233,0.129c0,0.087-0.086,0.179-0.26,0.272V66.2
		c0.414-0.76,0.774-1.552,1.077-2.371c0.224-0.658,0.454-1.604,0.686-2.84l2.191,0.506c0.166,0.034,0.248,0.107,0.248,0.219
		c0,0.104-0.154,0.213-0.468,0.326c-0.5,0.933-0.985,1.672-1.451,2.218c-0.138,0.162-0.274,0.323-0.404,0.479h3.852l0.829-0.777
		c-0.016-0.034-0.032-0.068-0.051-0.104c-0.424-1.055-0.67-2.182-0.741-3.387h-2.916l-0.157-0.361h2.763l0.663-0.828l1.204,0.789
		c0.147,0.104,0.231,0.208,0.248,0.312c-0.017,0.13-0.101,0.213-0.248,0.248l-0.84,0.272c0.759,1.292,1.744,2.294,2.955,3.003v0.365
		c-0.64,0.605-1.037,1.337-1.193,2.192c-0.131-0.139-0.251-0.271-0.362-0.4c-0.027,1.191-0.109,2.311-0.248,3.357
		c-0.137,0.951-0.368,1.545-0.685,1.787c-0.365,0.251-1.039,0.377-2.024,0.377c0.008-0.682-0.069-1.123-0.234-1.322
		c-0.181-0.259-0.467-0.421-0.855-0.48v-0.324h1.62c0.216-1.002,0.333-2.454,0.351-4.356h-1.465c-0.06,1.34-0.223,2.368-0.493,3.086
		c-0.267,0.665-0.601,1.204-0.996,1.618c-0.528,0.573-1.342,1.129-2.439,1.674l-0.309-0.141c0.552-0.494,0.962-0.988,1.229-1.48
		c0.209-0.362,0.36-0.753,0.455-1.166c0.2-0.925,0.323-2.122,0.375-3.591h-0.506l-0.039-0.096c-0.478,0.496-0.981,0.964-1.517,1.404
		l-0.105-0.078v5.108l-1.92,0.194v-6.683c-0.335,0.367-0.68,0.712-1.035,1.03L94.8,65.888c0.491-0.985,0.911-2.003,1.259-3.06
		C96.309,62.024,96.564,60.858,96.823,59.328"/>
	<path fill="#231815" d="M114.505,67.574h4.096v-1.608h-4.096V67.574z M114.505,65.603h4.096v-1.711h-4.096V65.603z M120.831,60.106
		l1.764,1.503l-0.299,0.364h-6.353c-0.405,0.583-0.829,1.104-1.27,1.556h3.745l0.908-1.023l1.88,1.073
		c0.131,0.097,0.196,0.183,0.196,0.26c0,0.113-0.174,0.268-0.519,0.468v5.857c0.017,0.451-0.122,0.806-0.416,1.064
		c-0.361,0.313-1.106,0.477-2.23,0.492c-0.113-0.785-0.255-1.277-0.428-1.476c-0.242-0.294-0.566-0.511-0.973-0.647v-0.21h1.763
		v-1.45h-4.094v3.525l-2.166,0.257v-6.421c-0.631,0.363-1.31,0.688-2.037,0.975l-0.155-0.156c1.038-0.91,1.9-1.887,2.592-2.935
		c0.225-0.373,0.433-0.776,0.622-1.21h-2.645l-0.157-0.363h2.971c0.267-0.699,0.505-1.491,0.714-2.373l2.8,0.738
		c0.206,0.071,0.31,0.17,0.31,0.301c0,0.11-0.19,0.227-0.568,0.349c-0.2,0.347-0.398,0.676-0.598,0.985h3.448L120.831,60.106z"/>
	<path fill="#231815" d="M133.896,65.188c0.252,0.804,0.624,1.465,1.114,1.984c0.397-0.484,0.75-0.978,1.052-1.479l-1.181,0.181
		v-0.687H133.896z M134.271,68.402c-0.302-0.82-0.558-1.892-0.764-3.214h-0.546v3.501C133.394,68.584,133.831,68.489,134.271,68.402
		 M132.962,64.825h1.919v-1.906h-1.919V64.825z M132.962,62.557h1.919v-2.035h-1.919V62.557z M128.088,67.211h0.676
		c0-0.985-0.049-1.715-0.145-2.189c-0.067-0.363-0.177-0.742-0.323-1.13c0.328-1.037,0.548-2.144,0.662-3.318h-0.87V67.211z
		 M126.169,59.328l2.011,0.883h0.814l0.546-0.624l1.348,0.843v-0.947l2.063,0.675h1.919l0.894-0.727l1.492,0.974
		c0.146,0.104,0.22,0.194,0.22,0.271c0,0.104-0.155,0.209-0.467,0.313v4.563l-0.493,0.078l1.361,1.089
		c0.112,0.068,0.17,0.17,0.17,0.298c-0.009,0.061-0.06,0.09-0.156,0.09c-0.085,0-0.207-0.016-0.364-0.05
		c-0.758,0.241-1.429,0.439-2.008,0.596c0.623,0.512,1.499,0.95,2.631,1.322v0.26c-0.692,0.422-1.072,1.217-1.141,2.386
		c-1.123-0.77-1.906-1.556-2.346-2.36c-0.053-0.104-0.104-0.217-0.157-0.337c-1.166,0.891-2.218,1.634-3.15,2.23
		c-0.068,0.346-0.155,0.519-0.26,0.519c-0.12,0-0.251-0.13-0.389-0.389l-1.012-1.997c0.39-0.061,0.786-0.13,1.193-0.207v-7.959
		l-0.156,0.024c-0.569,0.941-1.227,1.858-1.97,2.748c0.796,0.569,1.31,1.095,1.543,1.569c0.252,0.467,0.376,0.986,0.376,1.556
		c0,0.753-0.151,1.318-0.453,1.699c-0.348,0.38-0.906,0.569-1.674,0.569c-0.009-0.604-0.079-1.024-0.207-1.258
		c-0.061-0.12-0.147-0.225-0.26-0.312v3.747l-1.918,0.257V59.328L126.169,59.328z"/>
	<path fill="#231815" d="M148.051,60.328l0.778-1l1.321,0.908c0.174,0.124,0.269,0.24,0.286,0.348
		c-0.018,0.156-0.107,0.257-0.272,0.301l-0.919,0.273c1.097,0.828,2.515,1.474,4.251,1.93v0.352
		c-0.734,0.691-1.184,1.521-1.348,2.488c-1.176-0.699-2.039-1.455-2.594-2.27c-0.648-0.924-1.023-1.914-1.126-2.968h-1.519
		l-0.156-0.362H148.051z M145.613,63.269l2.621,0.831c0.223,0.086,0.335,0.173,0.335,0.258c0,0.13-0.206,0.274-0.622,0.43
		c-1.219,1.58-2.327,2.895-3.332,3.941l4.929-0.261c-0.295-0.718-0.689-1.344-1.181-1.88l0.154-0.193
		c1.521,0.519,2.528,1.08,3.021,1.685c0.475,0.605,0.714,1.249,0.714,1.931c0,0.366-0.124,0.696-0.377,1
		c-0.275,0.302-0.549,0.453-0.814,0.453c-0.564,0-0.944-0.583-1.143-1.751c-0.042-0.224-0.104-0.444-0.182-0.662l-6.456,2.05
		c-0.147,0.346-0.303,0.519-0.468,0.519c-0.076,0-0.154-0.116-0.232-0.351l-0.753-2.398l1.945-0.09
		C144.525,67.337,145.139,65.499,145.613,63.269 M143.852,59.848l2.424,0.646c0.182,0.054,0.273,0.132,0.273,0.234
		c0,0.112-0.174,0.216-0.52,0.311c-0.612,1.271-1.283,2.274-2.009,3.008c-0.761,0.734-1.681,1.356-2.763,1.868l-0.154-0.156
		c0.7-0.788,1.277-1.624,1.735-2.515C143.263,62.389,143.601,61.255,143.852,59.848"/>
	<path fill="#231815" d="M159.717,67.419h2.024v-2.801h-2.024V67.419z M165.706,60.328l0.856-1l1.775,1.053
		c0.13,0.091,0.194,0.174,0.194,0.256c0,0.105-0.173,0.244-0.52,0.417v9.242c0.026,0.406-0.13,0.731-0.466,0.974
		c-0.406,0.294-1.236,0.448-2.489,0.467c-0.147-0.865-0.336-1.41-0.571-1.633c-0.328-0.32-0.76-0.556-1.296-0.7v-0.195h2.645V60.69
		H157.9l-0.154-0.362H165.706z M157.642,63.271l2.232,0.984h1.787l0.856-0.984l1.647,1.049c0.147,0.088,0.221,0.168,0.221,0.246
		c0,0.113-0.157,0.285-0.468,0.521v3.733l-2.177,0.259v-1.297h-2.024v1.608l-2.075,0.272V63.271z M163.71,61.299l1.401,1.14
		l-0.26,0.364h-7.779l-0.156-0.364h5.86L163.71,61.299z"/>
	<path fill="#231815" d="M23.988,77.205v2.066h-0.16c-0.193-0.564-0.482-0.994-0.87-1.289c-0.385-0.293-0.807-0.441-1.266-0.441
		c-0.437,0-0.803,0.124-1.093,0.371c-0.291,0.244-0.497,0.588-0.617,1.029c-0.122,0.44-0.182,0.893-0.182,1.356
		c0,0.563,0.065,1.056,0.198,1.479c0.133,0.421,0.347,0.734,0.642,0.933c0.295,0.198,0.646,0.296,1.051,0.296
		c0.142,0,0.286-0.014,0.435-0.044c0.147-0.03,0.3-0.075,0.456-0.132v-1.219c0-0.23-0.016-0.38-0.049-0.447
		c-0.031-0.068-0.097-0.129-0.197-0.184c-0.099-0.057-0.22-0.083-0.361-0.083h-0.15v-0.159h2.846v0.159
		c-0.214,0.016-0.367,0.045-0.45,0.09c-0.084,0.044-0.15,0.117-0.196,0.222c-0.025,0.055-0.04,0.189-0.04,0.402v1.22
		c-0.375,0.168-0.764,0.293-1.169,0.379c-0.404,0.085-0.824,0.126-1.26,0.126c-0.556,0-1.018-0.075-1.386-0.227
		c-0.367-0.15-0.691-0.35-0.972-0.596c-0.28-0.247-0.5-0.524-0.658-0.833c-0.202-0.397-0.303-0.842-0.303-1.336
		c0-0.882,0.311-1.626,0.929-2.234c0.62-0.607,1.398-0.911,2.337-0.911c0.292,0,0.553,0.023,0.787,0.069
		c0.127,0.022,0.331,0.09,0.616,0.196c0.285,0.108,0.452,0.162,0.504,0.162c0.08,0,0.155-0.028,0.225-0.088
		c0.069-0.059,0.133-0.172,0.189-0.335L23.988,77.205L23.988,77.205z"/>
	<path fill="#231815" d="M28.237,77.533c-0.536,0-0.943,0.273-1.223,0.821c-0.228,0.449-0.342,1.095-0.342,1.937
		c0,1,0.176,1.738,0.526,2.217c0.247,0.335,0.588,0.501,1.029,0.501c0.297,0,0.544-0.071,0.744-0.216
		c0.252-0.184,0.449-0.479,0.591-0.885c0.142-0.404,0.212-0.931,0.212-1.582c0-0.774-0.073-1.355-0.216-1.737
		c-0.144-0.388-0.327-0.658-0.551-0.817C28.784,77.613,28.527,77.533,28.237,77.533 M28.185,77.257
		c0.933-0.034,1.691,0.238,2.275,0.816c0.582,0.578,0.875,1.306,0.875,2.174c0,0.744-0.218,1.397-0.652,1.962
		c-0.577,0.75-1.392,1.125-2.443,1.125c-1.053,0-1.868-0.36-2.444-1.072c-0.455-0.565-0.684-1.235-0.684-2.011
		c0-0.87,0.296-1.596,0.888-2.175C26.593,77.495,27.318,77.223,28.185,77.257"/>
	<path fill="#231815" d="M33.854,77.338l2.891,3.635v-2.52c0-0.352-0.051-0.588-0.15-0.713c-0.139-0.168-0.37-0.247-0.696-0.242
		v-0.16h1.936v0.16c-0.249,0.03-0.415,0.072-0.499,0.123s-0.152,0.134-0.199,0.248c-0.047,0.113-0.071,0.308-0.071,0.584v4.881
		h-0.147l-3.963-4.881v3.726c0,0.339,0.078,0.564,0.232,0.683s0.33,0.177,0.528,0.177h0.138v0.159h-2.079v-0.159
		c0.324-0.004,0.549-0.068,0.675-0.198c0.126-0.13,0.19-0.352,0.19-0.662v-4.135l-0.125-0.154c-0.124-0.156-0.233-0.259-0.329-0.31
		c-0.095-0.049-0.231-0.076-0.41-0.081v-0.16H33.854L33.854,77.338z"/>
	<path fill="#231815" d="M44.148,77.205v2.066h-0.16c-0.192-0.564-0.482-0.994-0.868-1.289c-0.387-0.293-0.809-0.441-1.267-0.441
		c-0.437,0-0.802,0.124-1.093,0.371c-0.291,0.244-0.497,0.588-0.618,1.029c-0.121,0.44-0.182,0.893-0.182,1.356
		c0,0.563,0.065,1.056,0.198,1.479c0.134,0.421,0.348,0.734,0.641,0.933c0.296,0.198,0.646,0.296,1.052,0.296
		c0.142,0,0.288-0.014,0.435-0.044c0.149-0.03,0.3-0.075,0.457-0.132v-1.219c0-0.23-0.017-0.38-0.048-0.447
		c-0.031-0.068-0.097-0.129-0.197-0.184c-0.098-0.057-0.218-0.083-0.36-0.083h-0.151v-0.159h2.847v0.159
		c-0.215,0.016-0.366,0.045-0.45,0.09c-0.085,0.044-0.152,0.117-0.196,0.222c-0.025,0.055-0.04,0.189-0.04,0.402v1.22
		c-0.374,0.168-0.764,0.293-1.169,0.379c-0.404,0.085-0.824,0.126-1.259,0.126c-0.556,0-1.018-0.075-1.385-0.227
		c-0.367-0.15-0.691-0.35-0.972-0.596c-0.281-0.247-0.5-0.524-0.658-0.833C38.5,81.283,38.4,80.839,38.4,80.345
		c0-0.882,0.311-1.626,0.929-2.234c0.618-0.607,1.399-0.911,2.337-0.911c0.292,0,0.553,0.023,0.787,0.069
		c0.127,0.022,0.333,0.09,0.617,0.196c0.283,0.108,0.451,0.162,0.504,0.162c0.08,0,0.154-0.028,0.225-0.088
		c0.069-0.059,0.131-0.172,0.189-0.335L44.148,77.205L44.148,77.205z"/>
	<path fill="#231815" d="M51.355,81.202l1.592-3.864h2.384V77.5h-0.19c-0.172,0-0.311,0.028-0.414,0.089
		c-0.073,0.043-0.13,0.108-0.174,0.205c-0.03,0.068-0.047,0.249-0.047,0.539v3.862c0,0.301,0.018,0.488,0.047,0.563
		c0.033,0.075,0.097,0.141,0.194,0.197c0.098,0.057,0.229,0.084,0.393,0.084h0.191v0.159h-3.06v-0.159h0.19
		c0.173,0,0.311-0.03,0.415-0.092c0.071-0.039,0.129-0.108,0.172-0.208c0.033-0.069,0.047-0.251,0.047-0.544v-4.341l-2.247,5.343
		h-0.104l-2.28-5.307v4.129c0,0.288,0.008,0.464,0.022,0.53c0.038,0.145,0.118,0.262,0.245,0.353
		c0.125,0.092,0.321,0.136,0.589,0.136v0.159h-2.006v-0.159h0.06c0.13,0.003,0.251-0.019,0.364-0.063
		c0.113-0.044,0.197-0.104,0.255-0.179c0.058-0.073,0.104-0.18,0.134-0.315c0.006-0.032,0.01-0.179,0.01-0.442v-3.707
		c0-0.295-0.017-0.479-0.047-0.557c-0.031-0.07-0.097-0.137-0.195-0.192c-0.098-0.058-0.229-0.085-0.393-0.085h-0.187v-0.16h2.396
		L51.355,81.202z"/>
	<path fill="#231815" d="M59.027,81.211l-0.873-2.018l-0.898,2.018H59.027z M59.172,81.531h-2.07l-0.246,0.571
		c-0.08,0.188-0.121,0.346-0.121,0.47c0,0.165,0.065,0.285,0.199,0.363c0.078,0.048,0.27,0.081,0.575,0.104v0.159h-1.949v-0.159
		c0.21-0.03,0.382-0.119,0.519-0.26c0.136-0.144,0.304-0.438,0.501-0.887l2.096-4.674h0.081l2.114,4.806
		c0.202,0.455,0.367,0.743,0.497,0.86c0.098,0.089,0.236,0.142,0.416,0.155v0.159h-2.835V83.04h0.116
		c0.227,0,0.389-0.03,0.481-0.096c0.063-0.047,0.092-0.111,0.092-0.197c0-0.054-0.007-0.106-0.024-0.162
		c-0.005-0.024-0.049-0.133-0.13-0.323L59.172,81.531z"/>
	<path fill="#231815" d="M69.675,77.338V77.5c-0.111,0.009-0.203,0.039-0.276,0.089c-0.075,0.054-0.142,0.133-0.199,0.24
		c-0.018,0.033-0.108,0.256-0.272,0.669l-1.836,4.837h-0.168l-1.454-3.778l-1.598,3.778h-0.16l-1.927-4.786
		c-0.196-0.481-0.333-0.771-0.41-0.873c-0.078-0.102-0.21-0.159-0.395-0.176v-0.162h2.542V77.5
		c-0.205,0.005-0.341,0.035-0.409,0.093c-0.067,0.056-0.102,0.127-0.102,0.209c0,0.11,0.07,0.341,0.212,0.696l1.148,2.843
		l0.922-2.221l-0.242-0.622c-0.134-0.338-0.235-0.567-0.308-0.68c-0.073-0.113-0.154-0.195-0.249-0.244
		c-0.095-0.05-0.231-0.074-0.413-0.074v-0.16h2.839v0.16c-0.198,0.003-0.342,0.02-0.428,0.047c-0.06,0.021-0.107,0.057-0.144,0.102
		c-0.034,0.049-0.051,0.102-0.051,0.164c0,0.064,0.064,0.269,0.194,0.607l1.067,2.773l0.956-2.51c0.1-0.259,0.162-0.437,0.186-0.532
		c0.022-0.095,0.035-0.181,0.035-0.261c0-0.119-0.039-0.212-0.12-0.279c-0.081-0.07-0.234-0.106-0.464-0.111v-0.16h1.522V77.338z"/>
	<path fill="#231815" d="M74.216,77.676v2.386h0.117c0.373,0,0.641-0.116,0.809-0.349c0.167-0.234,0.272-0.578,0.318-1.034h0.164
		v3.07H75.46c-0.035-0.335-0.107-0.608-0.216-0.823c-0.112-0.213-0.24-0.356-0.388-0.429c-0.147-0.074-0.36-0.11-0.64-0.11v1.649
		c0,0.324,0.014,0.521,0.04,0.593c0.027,0.071,0.079,0.131,0.155,0.178c0.074,0.045,0.194,0.069,0.363,0.069h0.349
		c0.547,0,0.987-0.128,1.315-0.382c0.332-0.253,0.568-0.64,0.711-1.158h0.16l-0.263,1.862h-5.064v-0.159h0.194
		c0.171,0,0.308-0.03,0.411-0.092c0.074-0.039,0.132-0.108,0.172-0.208c0.032-0.069,0.048-0.251,0.048-0.544v-3.854
		c0-0.266-0.007-0.428-0.021-0.486c-0.028-0.102-0.082-0.179-0.158-0.235c-0.109-0.081-0.26-0.121-0.45-0.121h-0.194v-0.16h4.905
		v1.733h-0.166c-0.083-0.424-0.201-0.728-0.352-0.911c-0.152-0.184-0.366-0.32-0.641-0.408c-0.162-0.052-0.464-0.076-0.909-0.076
		H74.216L74.216,77.676z"/>
	<path fill="#231815" d="M79.912,77.338l2.892,3.635v-2.52c0-0.352-0.051-0.588-0.151-0.713c-0.14-0.168-0.371-0.247-0.696-0.242
		v-0.16h1.935v0.16c-0.247,0.03-0.414,0.072-0.499,0.123c-0.084,0.051-0.151,0.134-0.199,0.248c-0.047,0.113-0.07,0.308-0.07,0.584
		v4.881h-0.146l-3.964-4.881v3.726c0,0.339,0.078,0.564,0.232,0.683s0.331,0.177,0.529,0.177h0.138v0.159h-2.078v-0.159
		c0.322-0.004,0.547-0.068,0.674-0.198s0.19-0.352,0.19-0.662v-4.135l-0.126-0.154c-0.124-0.156-0.233-0.259-0.328-0.31
		c-0.094-0.049-0.233-0.076-0.411-0.081v-0.16H79.912L79.912,77.338z"/>
	<path fill="#231815" d="M89.683,77.338v1.586h-0.155c-0.093-0.366-0.196-0.628-0.308-0.787c-0.113-0.16-0.267-0.288-0.462-0.384
		c-0.109-0.052-0.302-0.077-0.575-0.077h-0.438v4.52c0,0.301,0.016,0.488,0.051,0.563c0.033,0.075,0.096,0.141,0.194,0.197
		c0.097,0.057,0.229,0.084,0.395,0.084h0.194v0.159h-3.068v-0.159h0.195c0.17,0,0.305-0.03,0.41-0.092
		c0.075-0.039,0.134-0.108,0.177-0.208c0.031-0.069,0.046-0.251,0.046-0.544v-4.52h-0.424c-0.394,0-0.68,0.084-0.859,0.249
		c-0.252,0.235-0.408,0.568-0.476,0.999h-0.164v-1.586H89.683L89.683,77.338z"/>
	<path fill="#231815" d="M92.414,77.676v2.386h0.117c0.372,0,0.64-0.116,0.808-0.349c0.167-0.234,0.274-0.578,0.32-1.034h0.165v3.07
		h-0.165c-0.035-0.335-0.107-0.608-0.216-0.823c-0.113-0.213-0.24-0.356-0.388-0.429c-0.145-0.074-0.359-0.11-0.64-0.11v1.649
		c0,0.324,0.014,0.521,0.04,0.593c0.028,0.071,0.081,0.131,0.155,0.178c0.075,0.045,0.195,0.069,0.362,0.069h0.351
		c0.547,0,0.987-0.128,1.316-0.382c0.33-0.253,0.566-0.64,0.71-1.158h0.161l-0.262,1.862h-5.065v-0.159h0.194
		c0.169,0,0.307-0.03,0.409-0.092c0.077-0.039,0.134-0.108,0.174-0.208c0.033-0.069,0.048-0.251,0.048-0.544v-3.854
		c0-0.266-0.008-0.428-0.021-0.486c-0.028-0.102-0.08-0.179-0.158-0.235c-0.109-0.081-0.259-0.121-0.45-0.121h-0.195v-0.16h4.906
		v1.733h-0.165c-0.083-0.424-0.201-0.728-0.353-0.911c-0.15-0.184-0.364-0.32-0.641-0.408c-0.161-0.052-0.464-0.076-0.907-0.076
		H92.414L92.414,77.676z"/>
	<path fill="#231815" d="M98.256,77.654v2.567h0.247c0.399,0,0.7-0.036,0.9-0.109c0.198-0.073,0.353-0.206,0.469-0.397
		c0.113-0.192,0.17-0.442,0.17-0.752c0-0.447-0.104-0.775-0.313-0.989c-0.21-0.212-0.547-0.319-1.01-0.319H98.256L98.256,77.654z
		 M98.256,80.527v1.644c0,0.317,0.019,0.516,0.059,0.599c0.038,0.082,0.106,0.147,0.206,0.196c0.098,0.05,0.28,0.074,0.547,0.074
		v0.159h-2.999V83.04c0.271,0,0.455-0.024,0.552-0.075c0.098-0.051,0.164-0.116,0.202-0.197c0.04-0.081,0.059-0.279,0.059-0.597
		v-3.803c0-0.317-0.02-0.516-0.059-0.6c-0.039-0.082-0.107-0.147-0.204-0.198c-0.098-0.047-0.283-0.072-0.55-0.072V77.34h2.723
		c0.709,0,1.228,0.049,1.556,0.145c0.328,0.099,0.595,0.281,0.803,0.543c0.208,0.265,0.311,0.571,0.311,0.928
		c0,0.431-0.157,0.789-0.466,1.07c-0.199,0.179-0.476,0.313-0.834,0.403l1.412,1.981c0.183,0.258,0.314,0.416,0.391,0.481
		c0.12,0.089,0.256,0.139,0.411,0.146v0.159h-1.845l-1.887-2.67H98.256L98.256,80.527z"/>
	<path fill="#231815" d="M104.687,77.676v2.531c0.097,0.008,0.168,0.01,0.216,0.01c0.351,0,0.622-0.104,0.813-0.313
		c0.188-0.208,0.283-0.532,0.283-0.97c0-0.435-0.095-0.753-0.283-0.953c-0.191-0.203-0.476-0.304-0.852-0.304L104.687,77.676
		L104.687,77.676z M104.687,80.545v1.625c0,0.317,0.02,0.516,0.058,0.599c0.04,0.081,0.109,0.147,0.209,0.197
		c0.1,0.05,0.281,0.073,0.545,0.073v0.159h-2.975v-0.159c0.27,0,0.453-0.025,0.549-0.075c0.097-0.052,0.166-0.116,0.204-0.197
		c0.04-0.081,0.059-0.279,0.059-0.597v-3.803c0-0.316-0.019-0.515-0.059-0.599c-0.038-0.082-0.107-0.147-0.207-0.196
		c-0.097-0.049-0.28-0.074-0.546-0.074v-0.16h2.552c0.841,0,1.445,0.149,1.811,0.449c0.366,0.3,0.549,0.674,0.549,1.123
		c0,0.379-0.118,0.707-0.354,0.978s-0.563,0.456-0.976,0.553C105.825,80.51,105.352,80.545,104.687,80.545"/>
	<path fill="#231815" d="M110.054,77.654v2.567h0.247c0.402,0,0.7-0.036,0.9-0.109c0.199-0.073,0.355-0.206,0.468-0.397
		c0.113-0.192,0.172-0.442,0.172-0.752c0-0.447-0.105-0.775-0.313-0.989c-0.211-0.212-0.547-0.319-1.011-0.319H110.054
		L110.054,77.654z M110.054,80.527v1.644c0,0.317,0.02,0.516,0.06,0.599c0.038,0.082,0.107,0.147,0.206,0.196
		c0.098,0.05,0.28,0.074,0.548,0.074v0.159h-2.999V83.04c0.271,0,0.453-0.024,0.552-0.075c0.097-0.051,0.164-0.116,0.202-0.197
		c0.04-0.081,0.059-0.279,0.059-0.597v-3.803c0-0.317-0.019-0.516-0.059-0.6c-0.038-0.082-0.107-0.147-0.204-0.198
		c-0.098-0.047-0.282-0.072-0.549-0.072V77.34h2.722c0.708,0,1.227,0.049,1.556,0.145c0.329,0.099,0.597,0.281,0.804,0.543
		c0.207,0.265,0.31,0.571,0.31,0.928c0,0.431-0.154,0.789-0.464,1.07c-0.2,0.179-0.479,0.313-0.835,0.403l1.41,1.981
		c0.185,0.258,0.315,0.416,0.392,0.481c0.118,0.089,0.255,0.139,0.411,0.146v0.159h-1.846l-1.888-2.67H110.054L110.054,80.527z"/>
	<path fill="#231815" d="M117.336,83.039v0.159h-3.064v-0.159h0.195c0.17,0,0.307-0.03,0.409-0.092
		c0.074-0.039,0.134-0.108,0.174-0.208c0.032-0.069,0.047-0.251,0.047-0.544v-3.854c0-0.3-0.015-0.485-0.047-0.563
		c-0.032-0.072-0.096-0.139-0.193-0.194c-0.097-0.058-0.227-0.085-0.39-0.085h-0.195v-0.16h3.064v0.16h-0.195
		c-0.169,0-0.306,0.03-0.409,0.091c-0.075,0.041-0.135,0.111-0.179,0.208c-0.029,0.068-0.047,0.25-0.047,0.545v3.854
		c0,0.301,0.018,0.488,0.051,0.563c0.032,0.075,0.098,0.141,0.194,0.197s0.226,0.084,0.39,0.084H117.336z"/>
	<path fill="#231815" d="M121.695,77.205l0.05,1.954h-0.179c-0.083-0.488-0.289-0.883-0.615-1.183
		c-0.328-0.298-0.68-0.448-1.061-0.448c-0.294,0-0.526,0.08-0.698,0.237c-0.172,0.154-0.256,0.336-0.256,0.541
		c0,0.129,0.029,0.246,0.09,0.345c0.083,0.138,0.217,0.271,0.403,0.403c0.136,0.096,0.447,0.264,0.937,0.505
		c0.687,0.338,1.148,0.657,1.387,0.955c0.238,0.299,0.355,0.644,0.355,1.027c0,0.489-0.191,0.912-0.572,1.265
		c-0.382,0.354-0.867,0.529-1.455,0.529c-0.186,0-0.358-0.019-0.523-0.057c-0.165-0.037-0.369-0.107-0.617-0.213
		c-0.138-0.057-0.252-0.087-0.342-0.087c-0.074,0-0.152,0.03-0.238,0.087c-0.083,0.058-0.151,0.146-0.201,0.266h-0.161v-2.213h0.161
		c0.126,0.621,0.369,1.095,0.731,1.424c0.361,0.327,0.75,0.487,1.168,0.487c0.322,0,0.581-0.086,0.772-0.262
		c0.19-0.176,0.287-0.379,0.287-0.613c0-0.137-0.036-0.272-0.109-0.403c-0.074-0.13-0.186-0.254-0.335-0.368
		c-0.15-0.118-0.416-0.271-0.795-0.456c-0.532-0.263-0.916-0.485-1.148-0.671c-0.235-0.183-0.413-0.39-0.538-0.616
		c-0.126-0.229-0.188-0.48-0.188-0.753c0-0.467,0.17-0.865,0.514-1.193c0.341-0.328,0.774-0.493,1.295-0.493
		c0.191,0,0.376,0.022,0.556,0.071c0.134,0.034,0.3,0.097,0.494,0.19s0.33,0.141,0.409,0.141c0.075,0,0.133-0.021,0.175-0.07
		c0.044-0.045,0.084-0.156,0.121-0.332h0.127V77.205z"/>
	<path fill="#231815" d="M124.874,77.676v2.386h0.114c0.373,0,0.642-0.116,0.809-0.349c0.168-0.234,0.273-0.578,0.319-1.034h0.165
		v3.07h-0.165c-0.034-0.335-0.106-0.608-0.217-0.823c-0.111-0.213-0.24-0.356-0.386-0.429c-0.146-0.074-0.36-0.11-0.64-0.11v1.649
		c0,0.324,0.012,0.521,0.038,0.593c0.028,0.071,0.08,0.131,0.155,0.178c0.074,0.045,0.195,0.069,0.362,0.069h0.35
		c0.549,0,0.988-0.128,1.316-0.382c0.33-0.253,0.566-0.64,0.711-1.158h0.161l-0.265,1.862h-5.063v-0.159h0.193
		c0.171,0,0.308-0.03,0.41-0.092c0.077-0.039,0.134-0.108,0.174-0.208c0.032-0.069,0.049-0.251,0.049-0.544v-3.854
		c0-0.266-0.009-0.428-0.022-0.486c-0.029-0.102-0.081-0.179-0.159-0.235c-0.107-0.081-0.259-0.121-0.449-0.121h-0.195v-0.16h4.906
		v1.733h-0.165c-0.083-0.424-0.201-0.728-0.353-0.911c-0.149-0.184-0.365-0.32-0.641-0.408c-0.161-0.052-0.463-0.076-0.907-0.076
		H124.874L124.874,77.676z"/>
	<path fill="#231815" d="M136.484,77.205v2.031h-0.168c-0.126-0.529-0.363-0.938-0.709-1.219s-0.738-0.424-1.178-0.424
		c-0.365,0-0.7,0.106-1.005,0.314c-0.306,0.212-0.529,0.486-0.67,0.827c-0.182,0.436-0.272,0.92-0.272,1.452
		c0,0.524,0.064,1,0.198,1.434c0.133,0.43,0.339,0.755,0.622,0.977c0.282,0.22,0.648,0.329,1.099,0.329
		c0.369,0,0.706-0.08,1.015-0.242c0.304-0.161,0.628-0.44,0.968-0.835v0.507c-0.327,0.343-0.67,0.591-1.025,0.745
		c-0.357,0.154-0.773,0.233-1.248,0.233c-0.624,0-1.181-0.127-1.666-0.378c-0.484-0.251-0.86-0.61-1.122-1.081
		c-0.264-0.467-0.396-0.968-0.396-1.497c0-0.559,0.146-1.09,0.438-1.59c0.292-0.502,0.689-0.892,1.184-1.168
		c0.499-0.276,1.026-0.415,1.583-0.415c0.412,0,0.848,0.091,1.306,0.269c0.267,0.104,0.435,0.155,0.507,0.155
		c0.093,0,0.171-0.034,0.24-0.102c0.065-0.067,0.109-0.175,0.132-0.322L136.484,77.205L136.484,77.205z"/>
	<path fill="#231815" d="M140.439,77.533c-0.537,0-0.945,0.273-1.223,0.821c-0.229,0.449-0.343,1.095-0.343,1.937
		c0,1,0.178,1.738,0.526,2.217c0.247,0.335,0.59,0.501,1.029,0.501c0.295,0,0.545-0.071,0.744-0.216
		c0.251-0.184,0.449-0.479,0.591-0.885c0.142-0.404,0.213-0.931,0.213-1.582c0-0.774-0.073-1.355-0.214-1.737
		c-0.146-0.388-0.33-0.658-0.553-0.817C140.986,77.613,140.729,77.533,140.439,77.533 M140.387,77.257
		c0.934-0.034,1.691,0.238,2.274,0.816c0.585,0.578,0.875,1.306,0.875,2.174c0,0.744-0.218,1.397-0.653,1.962
		c-0.576,0.75-1.391,1.125-2.442,1.125c-1.054,0-1.868-0.36-2.446-1.072c-0.454-0.565-0.682-1.235-0.682-2.011
		c0-0.87,0.297-1.596,0.89-2.175C138.794,77.495,139.521,77.223,140.387,77.257"/>
	<path fill="#231815" d="M144.959,81.867c0.202,0,0.371,0.07,0.512,0.213c0.139,0.142,0.21,0.313,0.21,0.51
		c0,0.198-0.071,0.369-0.212,0.508s-0.312,0.209-0.51,0.209c-0.2,0-0.368-0.069-0.51-0.209c-0.139-0.139-0.209-0.31-0.209-0.508
		c0-0.197,0.07-0.368,0.209-0.51C144.591,81.938,144.759,81.867,144.959,81.867"/>
	<path fill="#231815" d="M146.506,84.75v-0.188c0.334-0.144,0.577-0.33,0.729-0.562c0.15-0.228,0.225-0.463,0.225-0.701
		c0-0.049-0.009-0.087-0.028-0.113c-0.021-0.021-0.041-0.033-0.061-0.033c-0.018,0-0.043,0.01-0.077,0.03
		c-0.086,0.048-0.188,0.073-0.313,0.073c-0.17,0-0.317-0.067-0.443-0.201c-0.125-0.132-0.188-0.288-0.188-0.465
		c0-0.191,0.073-0.358,0.215-0.502c0.145-0.143,0.32-0.216,0.523-0.216c0.249,0,0.458,0.096,0.637,0.286
		c0.177,0.193,0.263,0.455,0.263,0.789c0,0.413-0.125,0.779-0.373,1.098C147.364,84.365,146.995,84.602,146.506,84.75"/>
	<path fill="#231815" d="M156.078,81.141l-0.221,2.058h-5.202v-0.159h0.194c0.171,0,0.305-0.03,0.409-0.092
		c0.075-0.039,0.134-0.108,0.175-0.208c0.03-0.069,0.047-0.251,0.047-0.544v-3.854c0-0.3-0.017-0.485-0.047-0.563
		c-0.033-0.072-0.097-0.139-0.193-0.195s-0.228-0.084-0.391-0.084h-0.194v-0.16h3.123v0.16h-0.254c-0.171,0-0.306,0.03-0.411,0.091
		c-0.073,0.041-0.133,0.111-0.175,0.208c-0.032,0.068-0.049,0.25-0.049,0.545v3.732c0,0.301,0.017,0.491,0.053,0.574
		c0.034,0.08,0.103,0.144,0.204,0.184c0.07,0.025,0.245,0.038,0.522,0.038h0.488c0.312,0,0.569-0.055,0.778-0.166
		c0.207-0.107,0.387-0.281,0.537-0.518c0.15-0.235,0.295-0.585,0.431-1.046H156.078L156.078,81.141z"/>
	<path fill="#231815" d="M161.165,77.338v1.586h-0.157c-0.093-0.366-0.196-0.628-0.307-0.787c-0.111-0.16-0.268-0.288-0.462-0.384
		c-0.108-0.052-0.301-0.077-0.575-0.077h-0.438v4.52c0,0.301,0.019,0.488,0.053,0.563c0.033,0.075,0.097,0.141,0.193,0.197
		s0.227,0.084,0.396,0.084h0.194v0.159h-3.067v-0.159h0.193c0.171,0,0.306-0.03,0.411-0.092c0.074-0.039,0.134-0.108,0.177-0.208
		c0.031-0.069,0.047-0.251,0.047-0.544v-4.52h-0.424c-0.395,0-0.681,0.084-0.858,0.249c-0.251,0.235-0.409,0.568-0.478,0.999H155.9
		v-1.586H161.165L161.165,77.338z"/>
	<path fill="#231815" d="M163.834,77.672v4.57c0,0.243,0.014,0.394,0.035,0.446c0.022,0.056,0.06,0.096,0.116,0.127
		c0.078,0.042,0.189,0.063,0.337,0.063c0.483,0,0.85-0.164,1.104-0.493c0.346-0.442,0.519-1.133,0.519-2.065
		c0-0.753-0.119-1.353-0.355-1.803c-0.188-0.351-0.429-0.591-0.722-0.717C164.658,77.711,164.314,77.668,163.834,77.672
		 M161.6,83.198v-0.159h0.194c0.17,0,0.3-0.027,0.392-0.079c0.091-0.054,0.157-0.127,0.201-0.217
		c0.025-0.063,0.039-0.245,0.039-0.548v-3.854c0-0.299-0.018-0.486-0.048-0.563c-0.031-0.074-0.097-0.139-0.192-0.194
		c-0.097-0.058-0.228-0.085-0.392-0.085H161.6v-0.162h2.624c0.7,0,1.263,0.098,1.688,0.285c0.521,0.234,0.916,0.59,1.186,1.061
		c0.271,0.473,0.404,1.007,0.404,1.604c0,0.412-0.066,0.792-0.199,1.139c-0.133,0.348-0.303,0.635-0.515,0.861
		c-0.21,0.225-0.451,0.406-0.726,0.545c-0.277,0.137-0.612,0.241-1.012,0.318c-0.174,0.034-0.45,0.05-0.829,0.05H161.6V83.198z"/>
	<path fill="#231815" d="M168.98,81.867c0.202,0,0.373,0.07,0.514,0.213c0.139,0.142,0.209,0.313,0.209,0.51
		c0,0.198-0.07,0.369-0.213,0.508c-0.138,0.139-0.31,0.209-0.51,0.209c-0.199,0-0.369-0.069-0.508-0.209
		c-0.139-0.139-0.209-0.31-0.209-0.508c0-0.197,0.07-0.368,0.209-0.51C168.614,81.938,168.781,81.867,168.98,81.867"/>
</g>
</svg>
